<?xml version="1.0" encoding="utf-8"?>
<!-- Generator: Adobe Illustrator 16.0.0, SVG Export Plug-In . SVG Version: 6.00 Build 0)  -->
<!DOCTYPE svg PUBLIC "-//W3C//DTD SVG 1.1//EN" "http://www.w3.org/Graphics/SVG/1.1/DTD/svg11.dtd">
<svg version="1.1" id="Capa_1" xmlns="http://www.w3.org/2000/svg" xmlns:xlink="http://www.w3.org/1999/xlink" x="0px" y="0px"
	 width="595px" height="842px" viewBox="0 0 595 842" enable-background="new 0 0 595 842" xml:space="preserve">
<g>
	<path fill="#1F4180" stroke="#1F4180" stroke-width="5" stroke-miterlimit="10" d="M572.962,391.865
		c-10.922-3.652-86.896-20.255-86.896-20.255s-140.836-80.087-157.737-80.087c-16.902,0-132.844,0.052-132.844,0.052
		c-28.328,0-52.001,21.586-79.411,46.578c-12.917,11.775-27.176,24.735-42.904,36.263l-58.575,7.789
		C6.131,384.903,0,392.823,0,402.18v67.113c0,11.582,9.388,20.972,20.971,20.972h40.251c2.923,33.688,31.26,60.211,65.693,60.211
		c34.431,0,62.77-26.524,65.693-60.21h192.195c2.924,33.688,31.26,60.21,65.693,60.21c34.433,0,62.77-26.524,65.692-60.21h33.068
		c26.201,0,39.005-11.316,42.22-21.939C599.606,441.445,593.759,398.818,572.962,391.865z M126.915,518.688
		c-18.841,0-34.171-15.328-34.171-34.17s15.328-34.172,34.171-34.172c18.842,0,34.17,15.328,34.17,34.172
		C161.085,503.36,145.756,518.688,126.915,518.688z M253.757,371.612h-114.6c8.289-6.549,15.953-13.5,23.014-19.936
		c18.556-16.918,34.582-31.531,53.758-31.531c0,0,17.354-0.008,37.829-0.017L253.757,371.612L253.757,371.612z M281.663,320.118
		c14.183-0.005,26.825-0.009,33.168-0.009c15.794,0,79.854,37.201,103.896,51.503H281.663V320.118L281.663,320.118z
		 M450.495,518.688c-18.842,0-34.17-15.328-34.17-34.17s15.328-34.172,34.17-34.172s34.172,15.328,34.172,34.172
		C484.667,503.36,469.337,518.688,450.495,518.688z"/>
</g>
</svg>
