<?xml version="1.0" encoding="utf-8"?>
<!-- Generator: Adobe Illustrator 16.0.0, SVG Export Plug-In . SVG Version: 6.00 Build 0)  -->
<!DOCTYPE svg PUBLIC "-//W3C//DTD SVG 1.1//EN" "http://www.w3.org/Graphics/SVG/1.1/DTD/svg11.dtd">
<svg version="1.1" id="Layer_1" xmlns="http://www.w3.org/2000/svg" xmlns:xlink="http://www.w3.org/1999/xlink" x="0px" y="0px"
	 width="16px" height="16px" viewBox="0 0 16 16" enable-background="new 0 0 16 16" xml:space="preserve">
<path fill="#1F4180" d="M8,0C3.582,0,0,3.582,0,8s3.582,8,8,8s8-3.582,8-8S12.418,0,8,0z M5,8c0-1.657,1.343-3,3-3s3,1.343,3,3
	s-1.343,3-3,3S5,9.657,5,8z M14.468,10.68L14.468,10.68l-2.772-1.148C11.893,9.059,12,8.542,12,8s-0.107-1.059-0.305-1.531
	l2.772-1.148C14.811,6.146,15,7.051,15,8S14.811,9.854,14.468,10.68L14.468,10.68z M10.68,1.532L10.68,1.532L10.68,1.532
	L9.531,4.304C9.059,4.108,8.542,4,8,4S6.941,4.108,6.469,4.304L5.321,1.532C6.146,1.19,7.051,1,8,1S9.854,1.189,10.68,1.532z
	 M1.532,5.321l2.772,1.148C4.108,6.941,4,7.458,4,8s0.108,1.059,0.304,1.531L1.532,10.68C1.19,9.854,1,8.949,1,8
	S1.189,6.146,1.532,5.321z M5.321,14.468l1.148-2.772C6.941,11.893,7.458,12,8,12s1.059-0.107,1.531-0.305l1.148,2.772
	C9.854,14.811,8.949,15,8,15S6.146,14.811,5.321,14.468z"/>
</svg>
