<?xml version="1.0" encoding="utf-8"?>
<!-- Generator: Adobe Illustrator 16.0.0, SVG Export Plug-In . SVG Version: 6.00 Build 0)  -->
<!DOCTYPE svg PUBLIC "-//W3C//DTD SVG 1.1//EN" "http://www.w3.org/Graphics/SVG/1.1/DTD/svg11.dtd">
<svg version="1.1" id="Layer_1" xmlns="http://www.w3.org/2000/svg" xmlns:xlink="http://www.w3.org/1999/xlink" x="0px" y="0px"
	 width="16px" height="16px" viewBox="0 0 16 16" enable-background="new 0 0 16 16" xml:space="preserve">
<path fill="#1F4180" d="M16,9l-2-4h-3V3c0-0.55-0.45-1-1-1H1C0.45,2,0,2.45,0,3v8l1,1h1.268C2.098,12.294,2,12.636,2,13
	c0,1.105,0.895,2,2,2s2-0.895,2-2c0-0.364-0.098-0.706-0.268-1h5.536C11.098,12.294,11,12.636,11,13c0,1.105,0.895,2,2,2
	s2-0.895,2-2c0-0.364-0.098-0.706-0.268-1H16V9z M11,9V6h2.073l1.5,3H11z"/>
</svg>
