<?xml version="1.0" encoding="utf-8"?>
<!-- Generator: Adobe Illustrator 16.0.0, SVG Export Plug-In . SVG Version: 6.00 Build 0)  -->
<!DOCTYPE svg PUBLIC "-//W3C//DTD SVG 1.1//EN" "http://www.w3.org/Graphics/SVG/1.1/DTD/svg11.dtd">
<svg version="1.1" id="Capa_1" xmlns="http://www.w3.org/2000/svg" xmlns:xlink="http://www.w3.org/1999/xlink" x="0px" y="0px"
	 width="412.172px" height="412.172px" viewBox="0 0 412.172 412.172" enable-background="new 0 0 412.172 412.172"
	 xml:space="preserve">
<g>
	<path fill="#1F4180" d="M397.359,262.109c15.601-35.635,18.778-59.5,10.005-75.104c-3.381-6.013-11.854-16.099-30.597-16.099
		h-26.66v-58.644c0-14.879,7.752-17.491,8.546-17.719c2.45-0.423,3.978-2.607,3.786-5.097l-1.481-19.286
		c-0.099-1.278-0.701-2.467-1.674-3.301c-0.976-0.835-2.242-1.245-3.52-1.15c-11.993,0.921-34.673,11.837-34.673,46.553v58.644
		h-81.429L222.38,53.601c-1.049-7.119-7.157-12.393-14.353-12.393H63.085c-8.012,0-14.507,6.495-14.507,14.507v28.37
		c0,7.244,5.31,13.249,12.251,14.333v94.999C25.386,205.993,0,239.812,0,279.566c0,50.479,40.919,91.396,91.396,91.396
		c38.644,0,71.686-23.982,85.054-57.876h114.671c-0.001,0.11-0.01,0.22-0.01,0.331c0,31.781,25.765,57.545,57.546,57.545
		c31.78,0,57.545-25.764,57.545-57.545c0-14.801-5.592-28.293-14.773-38.489C393.407,270.857,395.414,266.555,397.359,262.109z
		 M91.395,322.607c-23.731,0-43.038-19.307-43.038-43.036c0-23.731,19.307-43.039,43.038-43.039s43.038,19.308,43.038,43.039
		C134.433,303.302,115.127,322.607,91.395,322.607z M103.335,170.282v-78.69h81.051l11.791,78.69H103.335z M348.657,332.279
		c-10.399,0-18.859-8.461-18.859-18.858s8.46-18.858,18.859-18.858c10.397,0,18.857,8.461,18.857,18.858
		S359.056,332.279,348.657,332.279z"/>
</g>
</svg>
